<?xml version="1.0" standalone="no"?>
<!DOCTYPE svg PUBLIC "-//W3C//DTD SVG 20010904//EN"
 "http://www.w3.org/TR/2001/REC-SVG-20010904/DTD/svg10.dtd">
<svg version="1.0" xmlns="http://www.w3.org/2000/svg"
 width="700.000000pt" height="700.000000pt" viewBox="0 0 700.000000 700.000000"
 preserveAspectRatio="xMidYMid meet">
<metadata>
Created for Jake Crossman Actor Portfolio
</metadata>
<g transform="translate(0.000000,700.000000) scale(0.100000,-0.100000)"
fill="#000000" stroke="none">
<path d="M3230 6990 c-1165 -57 -2169 -597 -2805 -1510 -306 -440 -512 -972
-575 -1485 -23 -186 -23 -584 0 -770 63 -513 269 -1045 575 -1485 636 -913
1640 -1453 2805 -1510 186 -9 584 -9 770 0 1165 57 2169 597 2805 1510 306
440 512 972 575 1485 23 186 23 584 0 770 -63 513 -269 1045 -575 1485 -636
913 -1640 1453 -2805 1510 -186 9 -584 9 -770 0z m1450 -1940 c275 -41 513
-167 693 -367 180 -200 276 -449 276 -715 0 -163 -36 -315 -108 -458 -25 -50
-45 -92 -45 -95 0 -3 21 -5 48 -5 98 0 203 -39 288 -107 175 -140 284 -359
284 -573 0 -214 -109 -433 -284 -573 -85 -68 -190 -107 -288 -107 l-48 0 45
-92 c72 -143 108 -295 108 -458 0 -266 -96 -515 -276 -715 -180 -200 -418
-326 -693 -367 -111 -17 -338 -17 -449 0 -275 41 -513 167 -693 367 -180 200
-276 449 -276 715 0 163 36 315 108 458 l45 92 -48 0 c-98 0 -203 39 -288
107 -175 140 -284 359 -284 573 0 214 109 433 284 573 85 68 190 107 288 107
l48 0 -45 95 c-72 143 -108 295 -108 458 0 266 96 515 276 715 180 200 418
326 693 367 111 17 338 17 449 0z"/>
<path d="M3420 4500 c0 -11 5 -20 10 -20 6 0 10 9 10 20 0 11 -4 20 -10 20
-5 0 -10 -9 -10 -20z"/>
</g>
</svg>
